<svg viewBox="0 0 406.8 309.533" width="5000" height="3804.4862340216323" xmlns="http://www.w3.org/2000/svg" xmlns:xlink="http://www.w3.org/1999/xlink" preserveAspectRatio="none"><defs></defs><style>.companyName {fill:#285A84;fill-opacity:1;}.icon1 {fill:#85C872;fill-opacity:1;}.icon2 {fill:#C2EF7E;fill-opacity:1;}.icon3 {fill:#5EA669;fill-opacity:1;}.text {fill:#285A84;fill-opacity:1;}</style><g opacity="1" transform="rotate(0 126.34479999999999 0)">
<svg width="154.1104" height="154.1106" x="126.34479999999999" y="0" version="1.1" preserveAspectRatio="none" viewBox="20 20 160 160">
  <g transform="matrix(1 0 0 1 0 0)" ><g><path d="M120.8 113.7c0 18.6-15 33.6-33.6 33.6s-33.6-15.1-33.6-33.6 15-33.6 33.6-33.6 33.6 15.1 33.6 33.6z" data-color="1" class="icon1"></path><path d="M100 20c-44.2 0-80 35.8-80 80s35.8 80 80 80 80-35.8 80-80-35.8-80-80-80zm-.3 132.6c-29.2 0-52.9-23.7-52.9-52.9s23.7-52.9 52.9-52.9 52.9 23.7 52.9 52.9-23.7 52.9-52.9 52.9z" data-color="2" class="icon2"></path><path d="M99.6 152.5c-29.2 0-52.9-23.6-52.9-52.6v52.6h105.7V99.9c.1 29.1-23.6 52.6-52.8 52.6z" data-color="3" class="icon3"></path><path d="M99.6 46.8l-52.4.1-.4 53c0-29.1 23.6-53.1 52.8-53.1z" data-color="3" class="icon3"></path><path d="M99.6 46.8c29.2 0 52.9 24.1 52.9 53.1V46.8H99.6z" data-color="3" class="icon3"></path></g></g>
</svg>
</g><g opacity="1" transform="rotate(0 0 290.3054)">
<svg width="406.8" height="19.2276" x="0" y="290.3054" version="1.1" preserveAspectRatio="none" viewBox="1.88 -29.88 800.44 37.84">
  <g transform="matrix(1 0 0 1 0 0)" class="text"><path d="M12.28 0.24Q9.16 0.24 6.30-0.76Q3.44-1.76 1.88-3.40L1.88-3.40L3.04-5.68Q4.56-4.16 7.08-3.22Q9.60-2.28 12.28-2.28L12.28-2.28Q16.04-2.28 17.92-3.66Q19.80-5.04 19.80-7.24L19.80-7.24Q19.80-8.92 18.78-9.92Q17.76-10.92 16.28-11.46Q14.80-12 12.16-12.64L12.16-12.64Q9-13.44 7.12-14.18Q5.24-14.92 3.90-16.44Q2.56-17.96 2.56-20.56L2.56-20.56Q2.56-22.68 3.68-24.42Q4.80-26.16 7.12-27.20Q9.44-28.24 12.88-28.24L12.88-28.24Q15.28-28.24 17.58-27.58Q19.88-26.92 21.56-25.76L21.56-25.76L20.56-23.40Q18.80-24.56 16.80-25.14Q14.80-25.72 12.88-25.72L12.88-25.72Q9.20-25.72 7.34-24.30Q5.48-22.88 5.48-20.64L5.48-20.64Q5.48-18.96 6.50-17.94Q7.52-16.92 9.06-16.38Q10.60-15.84 13.20-15.20L13.20-15.20Q16.28-14.44 18.18-13.70Q20.08-12.96 21.40-11.46Q22.72-9.96 22.72-7.40L22.72-7.40Q22.72-5.28 21.58-3.54Q20.44-1.80 18.08-0.78Q15.72 0.24 12.28 0.24L12.28 0.24Z M41.40-21.20Q44.36-21.20 46.76-19.86Q49.16-18.52 50.52-16.08Q51.88-13.64 51.88-10.52L51.88-10.52Q51.88-7.36 50.52-4.92Q49.16-2.48 46.78-1.14Q44.40 0.20 41.40 0.20L41.40 0.20Q38.84 0.20 36.78-0.86Q34.72-1.92 33.40-3.96L33.40-3.96L33.40 7.76L30.56 7.76L30.56-21.04L33.28-21.04L33.28-16.88Q34.56-18.96 36.66-20.08Q38.76-21.20 41.40-21.20L41.40-21.20ZM41.20-2.32Q43.40-2.32 45.20-3.34Q47-4.36 48.02-6.24Q49.04-8.12 49.04-10.52L49.04-10.52Q49.04-12.92 48.02-14.78Q47-16.64 45.20-17.68Q43.40-18.72 41.20-18.72L41.20-18.72Q38.96-18.72 37.18-17.68Q35.40-16.64 34.38-14.78Q33.36-12.92 33.36-10.52L33.36-10.52Q33.36-8.12 34.38-6.24Q35.40-4.36 37.18-3.34Q38.96-2.32 41.20-2.32L41.20-2.32Z M78.04-10.52L78-9.64L60.40-9.64Q60.64-6.36 62.92-4.34Q65.20-2.32 68.68-2.32L68.68-2.32Q70.64-2.32 72.28-3.02Q73.92-3.72 75.12-5.08L75.12-5.08L76.72-3.24Q75.32-1.56 73.22-0.68Q71.12 0.20 68.60 0.20L68.60 0.20Q65.36 0.20 62.86-1.18Q60.36-2.56 58.96-5Q57.56-7.44 57.56-10.52L57.56-10.52Q57.56-13.60 58.90-16.04Q60.24-18.48 62.58-19.84Q64.92-21.20 67.84-21.20L67.84-21.20Q70.76-21.20 73.08-19.84Q75.40-18.48 76.72-16.06Q78.04-13.64 78.04-10.52L78.04-10.52ZM67.84-18.76Q64.80-18.76 62.74-16.82Q60.68-14.88 60.40-11.76L60.40-11.76L75.32-11.76Q75.04-14.88 72.98-16.82Q70.92-18.76 67.84-18.76L67.84-18.76ZM65.24-24.32L70.72-29.28L74.52-29.28L68.04-24.32L65.24-24.32Z M94.56 0.20Q91.44 0.20 88.98-1.16Q86.52-2.52 85.12-4.98Q83.72-7.44 83.72-10.52L83.72-10.52Q83.72-13.60 85.12-16.04Q86.52-18.48 88.98-19.84Q91.44-21.20 94.56-21.20L94.56-21.20Q97.28-21.20 99.42-20.14Q101.56-19.08 102.80-17.04L102.80-17.04L100.68-15.60Q99.64-17.16 98.04-17.94Q96.44-18.72 94.56-18.72L94.56-18.72Q92.28-18.72 90.46-17.70Q88.64-16.68 87.62-14.80Q86.60-12.92 86.60-10.52L86.60-10.52Q86.60-8.08 87.62-6.22Q88.64-4.36 90.46-3.34Q92.28-2.32 94.56-2.32L94.56-2.32Q96.44-2.32 98.04-3.08Q99.64-3.84 100.68-5.40L100.68-5.40L102.80-3.96Q101.56-1.92 99.40-0.86Q97.24 0.20 94.56 0.20L94.56 0.20Z M110.36 0L110.36-21.04L113.20-21.04L113.20 0L110.36 0ZM111.80-25.64Q110.92-25.64 110.32-26.24Q109.72-26.84 109.72-27.68L109.72-27.68Q109.72-28.48 110.32-29.08Q110.92-29.68 111.80-29.68L111.80-29.68Q112.68-29.68 113.28-29.10Q113.88-28.52 113.88-27.72L113.88-27.72Q113.88-26.84 113.28-26.24Q112.68-25.64 111.80-25.64L111.80-25.64Z M130.48-21.20Q134.60-21.20 136.80-19.14Q139-17.08 139-13.04L139-13.04L139 0L136.28 0L136.28-3.28Q135.32-1.64 133.46-0.72Q131.60 0.20 129.04 0.20L129.04 0.20Q125.52 0.20 123.44-1.48Q121.36-3.16 121.36-5.92L121.36-5.92Q121.36-8.60 123.30-10.24Q125.24-11.88 129.48-11.88L129.48-11.88L136.16-11.88L136.16-13.16Q136.16-15.88 134.64-17.30Q133.12-18.72 130.20-18.72L130.20-18.72Q128.20-18.72 126.36-18.06Q124.52-17.40 123.20-16.24L123.20-16.24L121.92-18.36Q123.52-19.72 125.76-20.46Q128-21.20 130.48-21.20L130.48-21.20ZM129.48-2.04Q131.88-2.04 133.60-3.14Q135.32-4.24 136.16-6.32L136.16-6.32L136.16-9.76L129.56-9.76Q124.16-9.76 124.16-6L124.16-6Q124.16-4.16 125.56-3.10Q126.96-2.04 129.48-2.04L129.48-2.04Z M148.72 0L148.72-29.68L151.56-29.68L151.56 0L148.72 0Z M161.48 0L161.48-21.04L164.32-21.04L164.32 0L161.48 0ZM162.92-25.64Q162.04-25.64 161.44-26.24Q160.84-26.84 160.84-27.68L160.84-27.68Q160.84-28.48 161.44-29.08Q162.04-29.68 162.92-29.68L162.92-29.68Q163.80-29.68 164.40-29.10Q165.00-28.52 165.00-27.72L165.00-27.72Q165.00-26.84 164.40-26.24Q163.80-25.64 162.92-25.64L162.92-25.64Z M179.88 0.20Q177.32 0.20 174.98-0.54Q172.64-1.28 171.32-2.40L171.32-2.40L172.60-4.64Q173.92-3.60 175.92-2.94Q177.92-2.28 180.08-2.28L180.08-2.28Q182.96-2.28 184.34-3.18Q185.72-4.08 185.72-5.72L185.72-5.72Q185.72-6.88 184.96-7.54Q184.20-8.20 183.04-8.54Q181.88-8.88 179.96-9.20L179.96-9.20Q177.40-9.68 175.84-10.18Q174.28-10.68 173.18-11.88Q172.08-13.08 172.08-15.20L172.08-15.20Q172.08-17.84 174.28-19.52Q176.48-21.20 180.40-21.20L180.40-21.20Q182.44-21.20 184.48-20.66Q186.52-20.12 187.84-19.24L187.84-19.24L186.60-16.96Q184.00-18.76 180.40-18.76L180.40-18.76Q177.68-18.76 176.30-17.80Q174.92-16.84 174.92-15.28L174.92-15.28Q174.92-14.08 175.70-13.36Q176.48-12.64 177.64-12.30Q178.80-11.96 180.84-11.60L180.84-11.60Q183.36-11.12 184.88-10.64Q186.40-10.16 187.48-9Q188.56-7.84 188.56-5.80L188.56-5.80Q188.56-3.04 186.26-1.42Q183.96 0.20 179.88 0.20L179.88 0.20Z M205.88-3.32L206.88-1.28Q206.08-0.56 204.90-0.18Q203.72 0.20 202.44 0.20L202.44 0.20Q199.48 0.20 197.88-1.40Q196.28-3 196.28-5.92L196.28-5.92L196.28-18.64L192.52-18.64L192.52-21.04L196.28-21.04L196.28-25.64L199.12-25.64L199.12-21.04L205.52-21.04L205.52-18.64L199.12-18.64L199.12-6.08Q199.12-4.20 200.06-3.22Q201.00-2.24 202.76-2.24L202.76-2.24Q203.64-2.24 204.46-2.52Q205.28-2.80 205.88-3.32L205.88-3.32Z M231.64-10.52L231.60-9.64L214-9.64Q214.24-6.36 216.52-4.34Q218.80-2.32 222.28-2.32L222.28-2.32Q224.24-2.32 225.88-3.02Q227.52-3.72 228.72-5.08L228.72-5.08L230.32-3.24Q228.92-1.56 226.82-0.68Q224.72 0.20 222.20 0.20L222.20 0.20Q218.96 0.20 216.46-1.18Q213.96-2.56 212.56-5Q211.16-7.44 211.16-10.52L211.16-10.52Q211.16-13.60 212.50-16.04Q213.84-18.48 216.18-19.84Q218.52-21.20 221.44-21.20L221.44-21.20Q224.36-21.20 226.68-19.84Q229-18.48 230.32-16.06Q231.64-13.64 231.64-10.52L231.64-10.52ZM221.44-18.76Q218.40-18.76 216.34-16.82Q214.28-14.88 214-11.76L214-11.76L228.92-11.76Q228.64-14.88 226.58-16.82Q224.52-18.76 221.44-18.76L221.44-18.76Z M270.28-10.52L270.24-9.64L252.64-9.64Q252.88-6.36 255.16-4.34Q257.44-2.32 260.92-2.32L260.92-2.32Q262.88-2.32 264.52-3.02Q266.16-3.72 267.36-5.08L267.36-5.08L268.96-3.24Q267.56-1.56 265.46-0.68Q263.36 0.20 260.84 0.20L260.84 0.20Q257.60 0.20 255.10-1.18Q252.60-2.56 251.20-5Q249.80-7.44 249.80-10.52L249.80-10.52Q249.80-13.60 251.14-16.04Q252.48-18.48 254.82-19.84Q257.16-21.20 260.08-21.20L260.08-21.20Q263-21.20 265.32-19.84Q267.64-18.48 268.96-16.06Q270.28-13.64 270.28-10.52L270.28-10.52ZM260.08-18.76Q257.04-18.76 254.98-16.82Q252.92-14.88 252.64-11.76L252.64-11.76L267.56-11.76Q267.28-14.88 265.22-16.82Q263.16-18.76 260.08-18.76L260.08-18.76Z M288.80-21.20Q292.76-21.20 295.10-18.90Q297.44-16.60 297.44-12.20L297.44-12.20L297.44 0L294.60 0L294.60-11.92Q294.60-15.20 292.96-16.92Q291.32-18.64 288.28-18.64L288.28-18.64Q284.88-18.64 282.90-16.62Q280.92-14.60 280.92-11.04L280.92-11.04L280.92 0L278.08 0L278.08-21.04L280.80-21.04L280.80-17.16Q281.96-19.08 284.02-20.14Q286.08-21.20 288.80-21.20L288.80-21.20Z M338-10.52L337.96-9.64L320.36-9.64Q320.60-6.36 322.88-4.34Q325.16-2.32 328.64-2.32L328.64-2.32Q330.60-2.32 332.24-3.02Q333.88-3.72 335.08-5.08L335.08-5.08L336.68-3.24Q335.28-1.56 333.18-0.68Q331.08 0.20 328.56 0.20L328.56 0.20Q325.32 0.20 322.82-1.18Q320.32-2.56 318.92-5Q317.52-7.44 317.52-10.52L317.52-10.52Q317.52-13.60 318.86-16.04Q320.20-18.48 322.54-19.84Q324.88-21.20 327.80-21.20L327.80-21.20Q330.72-21.20 333.04-19.84Q335.36-18.48 336.68-16.06Q338-13.64 338-10.52L338-10.52ZM327.80-18.76Q324.76-18.76 322.70-16.82Q320.64-14.88 320.36-11.76L320.36-11.76L335.28-11.76Q335-14.88 332.94-16.82Q330.88-18.76 327.80-18.76L327.80-18.76Z M352.76-27.48Q350.92-27.48 349.98-26.48Q349.04-25.48 349.04-23.52L349.04-23.52L349.04-21.04L355.52-21.04L355.52-18.64L349.12-18.64L349.12 0L346.28 0L346.28-18.64L342.52-18.64L342.52-21.04L346.28-21.04L346.28-23.64Q346.28-26.52 347.94-28.20Q349.60-29.88 352.64-29.88L352.64-29.88Q353.84-29.88 354.96-29.54Q356.08-29.20 356.84-28.56L356.84-28.56L355.88-26.44Q354.64-27.48 352.76-27.48L352.76-27.48Z M368.32-27.48Q366.48-27.48 365.54-26.48Q364.60-25.48 364.60-23.52L364.60-23.52L364.60-21.04L371.08-21.04L371.08-18.64L364.68-18.64L364.68 0L361.84 0L361.84-18.64L358.08-18.64L358.08-21.04L361.84-21.04L361.84-23.64Q361.84-26.52 363.50-28.20Q365.16-29.88 368.20-29.88L368.20-29.88Q369.40-29.88 370.52-29.54Q371.64-29.20 372.40-28.56L372.40-28.56L371.44-26.44Q370.20-27.48 368.32-27.48L368.32-27.48Z M380.12 0L380.12-21.04L382.96-21.04L382.96 0L380.12 0ZM381.56-25.64Q380.68-25.64 380.08-26.24Q379.48-26.84 379.48-27.68L379.48-27.68Q379.48-28.48 380.08-29.08Q380.68-29.68 381.56-29.68L381.56-29.68Q382.44-29.68 383.04-29.10Q383.64-28.52 383.64-27.72L383.64-27.72Q383.64-26.84 383.04-26.24Q382.44-25.64 381.56-25.64L381.56-25.64Z M401.60 0.20Q398.48 0.20 396.02-1.16Q393.56-2.52 392.16-4.98Q390.76-7.44 390.76-10.52L390.76-10.52Q390.76-13.60 392.16-16.04Q393.56-18.48 396.02-19.84Q398.48-21.20 401.60-21.20L401.60-21.20Q404.32-21.20 406.46-20.14Q408.60-19.08 409.84-17.04L409.84-17.04L407.72-15.60Q406.68-17.16 405.08-17.94Q403.48-18.72 401.60-18.72L401.60-18.72Q399.32-18.72 397.50-17.70Q395.68-16.68 394.66-14.80Q393.64-12.92 393.64-10.52L393.64-10.52Q393.64-8.08 394.66-6.22Q395.68-4.36 397.50-3.34Q399.32-2.32 401.60-2.32L401.60-2.32Q403.48-2.32 405.08-3.08Q406.68-3.84 407.72-5.40L407.72-5.40L409.84-3.96Q408.60-1.92 406.44-0.86Q404.28 0.20 401.60 0.20L401.60 0.20Z M424.76-21.20Q428.88-21.20 431.08-19.14Q433.28-17.08 433.28-13.04L433.28-13.04L433.28 0L430.56 0L430.56-3.28Q429.60-1.64 427.74-0.72Q425.88 0.20 423.32 0.20L423.32 0.20Q419.80 0.20 417.72-1.48Q415.64-3.16 415.64-5.92L415.64-5.92Q415.64-8.60 417.58-10.24Q419.52-11.88 423.76-11.88L423.76-11.88L430.44-11.88L430.44-13.16Q430.44-15.88 428.92-17.30Q427.40-18.72 424.48-18.72L424.48-18.72Q422.48-18.72 420.64-18.06Q418.80-17.40 417.48-16.24L417.48-16.24L416.20-18.36Q417.80-19.72 420.04-20.46Q422.28-21.20 424.76-21.20L424.76-21.20ZM423.76-2.04Q426.16-2.04 427.88-3.14Q429.60-4.24 430.44-6.32L430.44-6.32L430.44-9.76L423.84-9.76Q418.44-9.76 418.44-6L418.44-6Q418.44-4.16 419.84-3.10Q421.24-2.04 423.76-2.04L423.76-2.04Z M451.80 0.20Q448.68 0.20 446.22-1.16Q443.76-2.52 442.36-4.98Q440.96-7.44 440.96-10.52L440.96-10.52Q440.96-13.60 442.36-16.04Q443.76-18.48 446.22-19.84Q448.68-21.20 451.80-21.20L451.80-21.20Q454.52-21.20 456.66-20.14Q458.80-19.08 460.04-17.04L460.04-17.04L457.92-15.60Q456.88-17.16 455.28-17.94Q453.68-18.72 451.80-18.72L451.80-18.72Q449.52-18.72 447.70-17.70Q445.88-16.68 444.86-14.80Q443.84-12.92 443.84-10.52L443.84-10.52Q443.84-8.08 444.86-6.22Q445.88-4.36 447.70-3.34Q449.52-2.32 451.80-2.32L451.80-2.32Q453.68-2.32 455.28-3.08Q456.88-3.84 457.92-5.40L457.92-5.40L460.04-3.96Q458.80-1.92 456.64-0.86Q454.48 0.20 451.80 0.20L451.80 0.20Z M467.60 0L467.60-21.04L470.44-21.04L470.44 0L467.60 0ZM469.04-25.64Q468.16-25.64 467.56-26.24Q466.96-26.84 466.96-27.68L466.96-27.68Q466.96-28.48 467.56-29.08Q468.16-29.68 469.04-29.68L469.04-29.68Q469.92-29.68 470.52-29.10Q471.12-28.52 471.12-27.72L471.12-27.72Q471.12-26.84 470.52-26.24Q469.92-25.64 469.04-25.64L469.04-25.64Z M490.44-3.32L491.44-1.28Q490.64-0.56 489.46-0.18Q488.28 0.20 487 0.20L487 0.20Q484.04 0.20 482.44-1.40Q480.84-3 480.84-5.92L480.84-5.92L480.84-18.64L477.08-18.64L477.08-21.04L480.84-21.04L480.84-25.64L483.68-25.64L483.68-21.04L490.08-21.04L490.08-18.64L483.68-18.64L483.68-6.08Q483.68-4.20 484.62-3.22Q485.56-2.24 487.32-2.24L487.32-2.24Q488.20-2.24 489.02-2.52Q489.84-2.80 490.44-3.32L490.44-3.32Z M516.20-10.52L516.16-9.64L498.56-9.64Q498.80-6.36 501.08-4.34Q503.36-2.32 506.84-2.32L506.84-2.32Q508.80-2.32 510.44-3.02Q512.08-3.72 513.28-5.08L513.28-5.08L514.88-3.24Q513.48-1.56 511.38-0.68Q509.28 0.20 506.76 0.20L506.76 0.20Q503.52 0.20 501.02-1.18Q498.52-2.56 497.12-5Q495.72-7.44 495.72-10.52L495.72-10.52Q495.72-13.60 497.06-16.04Q498.40-18.48 500.74-19.84Q503.08-21.20 506-21.20L506-21.20Q508.92-21.20 511.24-19.84Q513.56-18.48 514.88-16.06Q516.20-13.64 516.20-10.52L516.20-10.52ZM506-18.76Q502.96-18.76 500.90-16.82Q498.84-14.88 498.56-11.76L498.56-11.76L513.48-11.76Q513.20-14.88 511.14-16.82Q509.08-18.76 506-18.76L506-18.76ZM503.40-24.32L508.88-29.28L512.68-29.28L506.20-24.32L503.40-24.32Z M554.84-10.52L554.80-9.64L537.20-9.64Q537.44-6.36 539.72-4.34Q542-2.32 545.48-2.32L545.48-2.32Q547.44-2.32 549.08-3.02Q550.72-3.72 551.92-5.08L551.92-5.08L553.52-3.24Q552.12-1.56 550.02-0.68Q547.92 0.20 545.40 0.20L545.40 0.20Q542.16 0.20 539.66-1.18Q537.16-2.56 535.76-5Q534.36-7.44 534.36-10.52L534.36-10.52Q534.36-13.60 535.70-16.04Q537.04-18.48 539.38-19.84Q541.72-21.20 544.64-21.20L544.64-21.20Q547.56-21.20 549.88-19.84Q552.20-18.48 553.52-16.06Q554.84-13.64 554.84-10.52L554.84-10.52ZM544.64-18.76Q541.60-18.76 539.54-16.82Q537.48-14.88 537.20-11.76L537.20-11.76L552.12-11.76Q551.84-14.88 549.78-16.82Q547.72-18.76 544.64-18.76L544.64-18.76ZM542.04-24.32L547.52-29.28L551.32-29.28L544.84-24.32L542.04-24.32Z M573.36-21.20Q577.32-21.20 579.66-18.90Q582-16.60 582-12.20L582-12.20L582 0L579.16 0L579.16-11.92Q579.16-15.20 577.52-16.92Q575.88-18.64 572.84-18.64L572.84-18.64Q569.44-18.64 567.46-16.62Q565.48-14.60 565.48-11.04L565.48-11.04L565.48 0L562.64 0L562.64-21.04L565.36-21.04L565.36-17.16Q566.52-19.08 568.58-20.14Q570.64-21.20 573.36-21.20L573.36-21.20Z M610.16-10.52L610.12-9.64L592.52-9.64Q592.76-6.36 595.04-4.34Q597.32-2.32 600.80-2.32L600.80-2.32Q602.76-2.32 604.40-3.02Q606.04-3.72 607.24-5.08L607.24-5.08L608.84-3.24Q607.44-1.56 605.34-0.68Q603.24 0.20 600.72 0.20L600.72 0.20Q597.48 0.20 594.98-1.18Q592.48-2.56 591.08-5Q589.68-7.44 589.68-10.52L589.68-10.52Q589.68-13.60 591.02-16.04Q592.36-18.48 594.70-19.84Q597.04-21.20 599.96-21.20L599.96-21.20Q602.88-21.20 605.20-19.84Q607.52-18.48 608.84-16.06Q610.16-13.64 610.16-10.52L610.16-10.52ZM599.96-18.76Q596.92-18.76 594.86-16.82Q592.80-14.88 592.52-11.76L592.52-11.76L607.44-11.76Q607.16-14.88 605.10-16.82Q603.04-18.76 599.96-18.76L599.96-18.76Z M620.68-16.92Q621.68-19.04 623.66-20.12Q625.64-21.20 628.56-21.20L628.56-21.20L628.56-18.44L627.88-18.48Q624.56-18.48 622.68-16.44Q620.80-14.40 620.80-10.72L620.80-10.72L620.80 0L617.96 0L617.96-21.04L620.68-21.04L620.68-16.92Z M652.24-21.04L654.96-21.04L654.96-2.56Q654.96 2.80 652.34 5.38Q649.72 7.96 644.44 7.96L644.44 7.96Q641.52 7.96 638.90 7.10Q636.28 6.24 634.64 4.72L634.64 4.72L636.08 2.56Q637.60 3.92 639.78 4.68Q641.96 5.44 644.36 5.44L644.36 5.44Q648.36 5.44 650.24 3.58Q652.12 1.72 652.12-2.20L652.12-2.20L652.12-4.88Q650.80-2.88 648.66-1.84Q646.52-0.80 643.92-0.80L643.92-0.80Q640.96-0.80 638.54-2.10Q636.12-3.40 634.74-5.74Q633.36-8.08 633.36-11.04L633.36-11.04Q633.36-14 634.74-16.32Q636.12-18.64 638.52-19.92Q640.92-21.20 643.92-21.20L643.92-21.20Q646.60-21.20 648.76-20.12Q650.92-19.04 652.24-17L652.24-17L652.24-21.04ZM644.20-3.32Q646.48-3.32 648.32-4.30Q650.16-5.28 651.18-7.04Q652.20-8.80 652.20-11.04L652.20-11.04Q652.20-13.28 651.18-15.02Q650.16-16.76 648.34-17.74Q646.52-18.72 644.20-18.72L644.20-18.72Q641.92-18.72 640.10-17.76Q638.28-16.80 637.26-15.04Q636.24-13.28 636.24-11.04L636.24-11.04Q636.24-8.80 637.26-7.04Q638.28-5.28 640.10-4.30Q641.92-3.32 644.20-3.32L644.20-3.32Z M683.28-10.52L683.24-9.64L665.64-9.64Q665.88-6.36 668.16-4.34Q670.44-2.32 673.92-2.32L673.92-2.32Q675.88-2.32 677.52-3.02Q679.16-3.72 680.36-5.08L680.36-5.08L681.96-3.24Q680.56-1.56 678.46-0.68Q676.36 0.20 673.84 0.20L673.84 0.20Q670.60 0.20 668.10-1.18Q665.60-2.56 664.20-5Q662.80-7.44 662.80-10.52L662.80-10.52Q662.80-13.60 664.14-16.04Q665.48-18.48 667.82-19.84Q670.16-21.20 673.08-21.20L673.08-21.20Q676-21.20 678.32-19.84Q680.64-18.48 681.96-16.06Q683.28-13.64 683.28-10.52L683.28-10.52ZM673.08-18.76Q670.04-18.76 667.98-16.82Q665.92-14.88 665.64-11.76L665.64-11.76L680.56-11.76Q680.28-14.88 678.22-16.82Q676.16-18.76 673.08-18.76L673.08-18.76ZM670.48-24.32L675.96-29.28L679.76-29.28L673.28-24.32L670.48-24.32Z M701.16-3.32L702.16-1.28Q701.36-0.56 700.18-0.18Q699 0.20 697.72 0.20L697.72 0.20Q694.76 0.20 693.16-1.40Q691.56-3 691.56-5.92L691.56-5.92L691.56-18.64L687.80-18.64L687.80-21.04L691.56-21.04L691.56-25.64L694.40-25.64L694.40-21.04L700.80-21.04L700.80-18.64L694.40-18.64L694.40-6.08Q694.40-4.20 695.34-3.22Q696.28-2.24 698.04-2.24L698.04-2.24Q698.92-2.24 699.74-2.52Q700.56-2.80 701.16-3.32L701.16-3.32Z M709.32 0L709.32-21.04L712.16-21.04L712.16 0L709.32 0ZM710.76-25.64Q709.88-25.64 709.28-26.24Q708.68-26.84 708.68-27.68L708.68-27.68Q708.68-28.48 709.28-29.08Q709.88-29.68 710.76-29.68L710.76-29.68Q711.64-29.68 712.24-29.10Q712.84-28.52 712.84-27.72L712.84-27.72Q712.84-26.84 712.24-26.24Q711.64-25.64 710.76-25.64L710.76-25.64Z M738.56-21.04L741.28-21.04L741.28 7.76L738.44 7.76L738.44-3.96Q737.12-1.92 735.06-0.86Q733 0.20 730.44 0.20L730.44 0.20Q727.44 0.20 725.06-1.14Q722.68-2.48 721.32-4.92Q719.96-7.36 719.96-10.52L719.96-10.52Q719.96-13.64 721.32-16.08Q722.68-18.52 725.08-19.86Q727.48-21.20 730.44-21.20L730.44-21.20Q733.08-21.20 735.18-20.08Q737.28-18.96 738.56-16.88L738.56-16.88L738.56-21.04ZM730.68-2.32Q732.88-2.32 734.66-3.34Q736.44-4.36 737.46-6.24Q738.48-8.12 738.48-10.52L738.48-10.52Q738.48-12.92 737.46-14.78Q736.44-16.64 734.66-17.68Q732.88-18.72 730.68-18.72L730.68-18.72Q728.44-18.72 726.66-17.68Q724.88-16.64 723.86-14.78Q722.84-12.92 722.84-10.52L722.84-10.52Q722.84-8.12 723.86-6.24Q724.88-4.36 726.66-3.34Q728.44-2.32 730.68-2.32L730.68-2.32Z M767.32-21.04L770.16-21.04L770.16 0L767.44 0L767.44-3.84Q766.32-1.92 764.36-0.86Q762.40 0.20 759.88 0.20L759.88 0.20Q755.76 0.20 753.38-2.10Q751-4.40 751-8.84L751-8.84L751-21.04L753.84-21.04L753.84-9.12Q753.84-5.80 755.48-4.08Q757.12-2.36 760.16-2.36L760.16-2.36Q763.48-2.36 765.40-4.38Q767.32-6.40 767.32-10L767.32-10L767.32-21.04Z M798.48-10.52L798.44-9.64L780.84-9.64Q781.08-6.36 783.36-4.34Q785.64-2.32 789.12-2.32L789.12-2.32Q791.08-2.32 792.72-3.02Q794.36-3.72 795.56-5.08L795.56-5.08L797.16-3.24Q795.76-1.56 793.66-0.68Q791.56 0.20 789.04 0.20L789.04 0.20Q785.80 0.20 783.30-1.18Q780.80-2.56 779.40-5Q778-7.44 778-10.52L778-10.52Q778-13.60 779.34-16.04Q780.68-18.48 783.02-19.84Q785.36-21.20 788.28-21.20L788.28-21.20Q791.20-21.20 793.52-19.84Q795.84-18.48 797.16-16.06Q798.48-13.64 798.48-10.52L798.48-10.52ZM788.28-18.76Q785.24-18.76 783.18-16.82Q781.12-14.88 780.84-11.76L780.84-11.76L795.76-11.76Q795.48-14.88 793.42-16.82Q791.36-18.76 788.28-18.76L788.28-18.76Z"/></g>
</svg>
</g><g opacity="1" transform="rotate(0 10.761799999999994 194.16790000000003)">
<svg width="385.2764" height="80.1146" x="10.761799999999994" y="194.16790000000003" version="1.1" preserveAspectRatio="none" viewBox="3.4 -28 140.04 29.12">
  <g transform="matrix(1 0 0 1 0 0)" class="companyName"><path d="M18.48 0L3.40 0Q3.40 0.12 3.88-0.18Q4.36-0.48 4.74-1.38Q5.12-2.28 5.12-4L5.12-4L5.12-23.64Q5.12-25.28 4.74-26.14Q4.36-27 3.88-27.32Q3.40-27.64 3.40-27.52L3.40-27.52L17.88-27.52L17.88-23.52Q17.16-25.92 13.56-25.92L13.56-25.92L8-25.92L8-14.56L14.88-14.56Q15.68-14.56 16.24-14.82Q16.80-15.08 17.08-15.36Q17.36-15.64 17.40-15.72L17.40-15.72L17.40-11.84Q17.36-11.92 17.08-12.20Q16.80-12.48 16.26-12.72Q15.72-12.96 14.92-12.96L14.92-12.96L8-12.96L8-1.60L14.24-1.60Q16.04-1.60 17.34-2.34Q18.64-3.08 19.20-4.24L19.20-4.24L18.48 0Z M44.64-27.52L50.28-27.52Q49.72-27.40 49.18-26.62Q48.64-25.84 48.64-23.88L48.64-23.88L48.64 1.12L28.16-22.76L28.16-3.60Q28.16-1.68 28.84-0.90Q29.52-0.12 30.16 0L30.16 0L24.52 0Q25.08-0.12 25.66-0.90Q26.24-1.68 26.24-3.64L26.24-3.64L26.24-23.64Q26.24-25 25.32-26.12Q24.40-27.24 23-27.52L23-27.52L27.96-27.52L46.72-5.64L46.72-23.88Q46.72-26.96 44.64-27.52L44.64-27.52Z M81.84 0L66.76 0Q66.76 0.12 67.24-0.18Q67.72-0.48 68.10-1.38Q68.48-2.28 68.48-4L68.48-4L68.48-23.64Q68.48-25.28 68.10-26.14Q67.72-27 67.24-27.32Q66.76-27.64 66.76-27.52L66.76-27.52L81.24-27.52L81.24-23.52Q80.52-25.92 76.92-25.92L76.92-25.92L71.36-25.92L71.36-14.56L78.24-14.56Q79.04-14.56 79.60-14.82Q80.16-15.08 80.44-15.36Q80.72-15.64 80.76-15.72L80.76-15.72L80.76-11.84Q80.72-11.92 80.44-12.20Q80.16-12.48 79.62-12.72Q79.08-12.96 78.28-12.96L78.28-12.96L71.36-12.96L71.36-1.60L77.60-1.60Q79.40-1.60 80.70-2.34Q82-3.08 82.56-4.24L82.56-4.24L81.84 0Z M109.92-2.44Q108.40-1.20 105.96-0.36Q103.52 0.48 101.04 0.48L101.04 0.48Q97.32 0.48 94.12-1.24Q90.92-2.96 88.98-6.20Q87.04-9.44 87.04-13.80L87.04-13.80Q87.04-17.88 88.82-21.12Q90.60-24.36 93.90-26.18Q97.20-28 101.60-28L101.60-28Q106.28-28 109.92-25.96L109.92-25.96L109.92-21.52Q108.68-23.72 106.32-25.02Q103.96-26.32 101.28-26.32L101.28-26.32Q97.88-26.32 95.38-24.72Q92.88-23.12 91.56-20.34Q90.24-17.56 90.24-14.12L90.24-14.12Q90.24-10.24 91.74-7.36Q93.24-4.48 95.80-2.94Q98.36-1.40 101.52-1.40L101.52-1.40Q106.60-1.40 109.92-4.36L109.92-4.36L109.92-2.44Z M115.20-13.44Q115.20-17.68 117.02-21Q118.84-24.32 122.14-26.16Q125.44-28 129.76-28L129.76-28Q133.36-28 136.50-26.42Q139.64-24.84 141.54-21.68Q143.44-18.52 143.44-14.08L143.44-14.08Q143.44-9.84 141.62-6.52Q139.80-3.20 136.50-1.36Q133.20 0.48 128.88 0.48L128.88 0.48Q125.28 0.48 122.14-1.10Q119-2.68 117.10-5.84Q115.20-9 115.20-13.44L115.20-13.44ZM140.24-13.48Q140.24-17.12 138.74-20.06Q137.24-23 134.62-24.66Q132-26.32 128.72-26.32L128.72-26.32Q125.72-26.32 123.38-24.80Q121.04-23.28 119.72-20.50Q118.40-17.72 118.40-14.04L118.40-14.04Q118.40-10.40 119.90-7.46Q121.40-4.52 124.02-2.86Q126.64-1.20 129.92-1.20L129.92-1.20Q132.92-1.20 135.26-2.72Q137.60-4.24 138.92-7.02Q140.24-9.80 140.24-13.48L140.24-13.48Z"/></g>
</svg>
</g></svg>